<?xml version="1.0" encoding="utf-8"?>
<!-- Svg Vector Icons : http://www.onlinewebfonts.com/icon -->
<!DOCTYPE svg PUBLIC "-//W3C//DTD SVG 1.1//EN" "http://www.w3.org/Graphics/SVG/1.1/DTD/svg11.dtd">
<svg version="1.1" xmlns="http://www.w3.org/2000/svg" xmlns:xlink="http://www.w3.org/1999/xlink" x="0px" y="0px" viewBox="0 0 1000 1000" enable-background="new 0 0 1000 1000" xml:space="preserve">
<metadata> Svg Vector Icons : http://www.onlinewebfonts.com/icon </metadata>
<g><path d="M500,10C229.4,10,10,229.4,10,500c0,270.6,219.4,490,490,490c270.6,0,490-219.4,490-490C990,229.4,770.6,10,500,10z M747.3,676.1c19.7,19.7,19.7,51.5,0,71.2c-9.8,9.8-22.7,14.8-35.6,14.8c-12.9,0-25.8-4.9-35.6-14.8L500,571.2L323.9,747.3c-9.8,9.8-22.7,14.8-35.6,14.8c-12.9,0-25.8-4.9-35.6-14.8c-19.7-19.7-19.7-51.5,0-71.2L428.8,500L252.7,323.9c-19.7-19.7-19.7-51.5,0-71.2c19.7-19.7,51.5-19.7,71.2,0L500,428.8l176.1-176.1c19.7-19.7,51.5-19.7,71.2,0c19.7,19.7,19.7,51.5,0,71.2L571.2,500L747.3,676.1z"/></g>
</svg>